<svg xmlns="http://www.w3.org/2000/svg" viewBox="0 0 203.02 203"><g id="Layer_2" data-name="Layer 2"><g id="Layer_1-2" data-name="Layer 1"><path d="M2.06,81.05c7,3.52,14.57,7.21,22.65,6.25a18.07,18.07,0,0,0,9.92-4.17c2.77-2.42,4.61-5.73,6.3-8.94a310.27,310.27,0,0,0,19.91-47c1.48-4.5,2.88-9,4.13-13.59,1.17-4.25,2-8.72,0-12.86C64.14-1,61.55.55,62.37,2.29,64,5.68,63,9.62,62,13c-1,3.74-2.17,7.46-3.35,11.16Q55,35.54,50.51,46.57T40.69,68.1c-3.09,6.13-6.08,13.49-13.25,15.61-8.32,2.47-16.59-1.6-23.87-5.25-1.72-.87-3.24,1.72-1.51,2.59Z"/><path d="M12.15,53.49A4.5,4.5,0,1,0,7.65,49a4.59,4.59,0,0,0,4.5,4.5Z"/><path d="M44.32,20.38a4.5,4.5,0,1,0-4.5-4.5,4.55,4.55,0,0,0,4.5,4.5Z"/><path d="M74.88,45.14c10.67,1.91,19.93,8,27.14,15.94C110,69.9,115.2,80.84,119.08,92c2.3,6.61,4.2,13.35,6.08,20.08a1.5,1.5,0,0,0,2.89-.79C121.6,88.21,114,63.12,92.83,49.22a46.12,46.12,0,0,0-17.15-7c-1.89-.33-2.7,2.56-.8,2.9Z"/><path d="M143.24,77.13a4.5,4.5,0,1,0-4.5-4.5,4.56,4.56,0,0,0,4.5,4.5Z"/><path d="M114.63,29.84a4.5,4.5,0,1,0-4.5-4.5,4.55,4.55,0,0,0,4.5,4.5Z"/><path d="M39.25,136.15c4.54,3.34,9.94,6.92,15.86,6a17.16,17.16,0,0,0,7.4-3.53q3.57-2.6,6.91-5.48a101.57,101.57,0,0,0,12.61-13,29.17,29.17,0,0,0,4.56-7.07,16,16,0,0,0,1-7.89c-.7-6.34-4.1-12-4.82-18.35-.22-1.9-3.22-1.92-3,0,.59,5.22,2.81,10,4.14,15a18.31,18.31,0,0,1,.68,7.28,16.47,16.47,0,0,1-3.35,7.18,89.41,89.41,0,0,1-11,12.1c-2.06,1.92-4.19,3.76-6.39,5.5a34.69,34.69,0,0,1-6.75,4.6c-5.84,2.66-11.82-1.58-16.37-4.92-1.56-1.15-3,1.46-1.51,2.59Z"/><path d="M45.52,118.51A4.5,4.5,0,1,0,41,114a4.56,4.56,0,0,0,4.5,4.5Z"/><path d="M63.12,100.77a4.5,4.5,0,1,0-4.5-4.5,4.55,4.55,0,0,0,4.5,4.5Z"/><path d="M95.33,128.67c3.8,16.73,15,30.65,27.81,41.6,6.75,5.77,14.18,11.31,22.81,13.86a31.26,31.26,0,0,0,24.13-2.83c8.28-4.53,14.85-11.7,20.79-18.9,1.22-1.48-.89-3.61-2.12-2.12-9.7,11.74-22.83,25.17-39.59,21.57-8.39-1.79-15.7-6.89-22.2-12.28a105,105,0,0,1-17-17.41,64.12,64.12,0,0,1-11.72-24.29c-.42-1.88-3.31-1.08-2.89.8Z"/><path d="M158.73,156.34a4.5,4.5,0,1,0-4.5-4.5,4.55,4.55,0,0,0,4.5,4.5Z"/><path d="M133.7,146.88a4.5,4.5,0,1,0-4.5-4.5,4.55,4.55,0,0,0,4.5,4.5Z"/><path d="M1.06,191.08l15.19,4.3c2.12.6,4.45,1.57,6.7,1.36s3.72-1.59,5.16-3.05c7.27-7.36,14.48-14.78,21.72-22.17,1.35-1.39-.77-3.51-2.12-2.13L27.37,190.16c-1.31,1.34-2.83,3.49-4.86,3.61a9.43,9.43,0,0,1-3.09-.61l-3.33-.94-14.23-4a1.51,1.51,0,0,0-.8,2.9Z"/><path d="M8.57,175.25a4.5,4.5,0,0,0,0-9,4.5,4.5,0,1,0,0,9Z"/><path d="M24.07,167a4.5,4.5,0,1,0-4.5-4.5,4.56,4.56,0,0,0,4.5,4.5Z"/><path d="M124.47,6.75c15.11-5.53,31,3.48,40.23,15.28,5.17,6.61,8.89,14.23,12.18,21.91,3.69,8.61,7.06,17.36,10.55,26.05L200,101.31c.71,1.77,3.61,1,2.89-.8C195.38,81.79,188.11,63,180.29,44.35c-6.47-15.4-15-31.28-30.9-38.6-8-3.7-17.27-5-25.72-1.9-1.79.66-1,3.56.8,2.9Z"/><path d="M68.14,199.82c2.74,4.36,8.81,3.76,12.5,1.06,2.28-1.67,4-3.84,6.08-5.77s4.79-3.73,7.69-3.05c1.88.44,2.68-2.45.79-2.89-5.65-1.33-9.83,3-13.41,6.69-1.67,1.71-3.51,3.46-5.9,4-1.82.41-4.09.13-5.16-1.57s-3.62-.12-2.59,1.52Z"/><path d="M71.73,185.89a4.5,4.5,0,1,0-4.5-4.5,4.55,4.55,0,0,0,4.5,4.5Z"/><path d="M80.08,180a4.5,4.5,0,1,0-4.5-4.5,4.56,4.56,0,0,0,4.5,4.5Z"/><path d="M185.52,117.37c-3.65,2.57-7.56,5.41-12.09,6.08-3.46.51-7.55-.48-9.54-3.55-1-1.62-3.64-.12-2.59,1.51,2.47,3.82,7.12,5.48,11.54,5.1,5.36-.45,9.92-3.55,14.19-6.55,1.57-1.1.07-3.71-1.51-2.59Z"/><path d="M170.64,109.05a4.5,4.5,0,1,0-4.5-4.5,4.55,4.55,0,0,0,4.5,4.5Z"/></g></g></svg>